<svg xmlns="http://www.w3.org/2000/svg" viewBox="0 0 512 512">
  <rect width="512" height="512" fill="#161512"/>
  <path d="M124 380c-5.1-4.2-8-10.6-8-17.4-46.3-9-33.8-62.6-33.8-62.6 30 1.2 39.8-24.8 40.6-26.6 2.4-5.2 6.5-9.6 11.6-12.2-5.6-21.8-19.6-59.4-4-96.2 13-30.8 48-40.8 48-40.8s15.4 34.6 44.4 39.4c0 0-3.6-28.6 17.6-55.8 28.6-36.6 68.2-34.6 68.2-34.6s17.2 41.6 8.2 82.2c1.2.6 2.4 1 3.4 1.6 32.8 14.6 45.4 51.4 45.4 51.4-15 15.6-43.2 11.6-51 8.8-1.6 2.2-3.4 4.2-5.2 6.2 17 28.6 9.6 57.6 9.6 57.6-19.8-3.4-38.4-16.4-48.4-25.2-9 14-23.8 24.8-40.8 29.8 4 11.2 1 23.8-7.6 32 30.2 5.2 62.6 12 77.4 33 2.6 3.6 3.6 8 2.8 12.4-1.8 10-10.4 17-20.6 17H124z" fill="#D4AF37"/>
</svg>
